<svg width="20" height="20" viewBox="0 0 11 11" fill="none" xmlns="http://www.w3.org/2000/svg">
<g clip-path="url(#clip0_201_11920)">
<path d="M5.67938 10.1169C4.50658 10.1169 3.38181 9.65106 2.55251 8.82176C1.72322 7.99246 1.25732 6.8677 1.25732 5.69489C1.25732 3.9032 2.2866 2.29677 3.88025 1.60316C3.93642 1.57868 3.99865 1.57168 4.05885 1.58309C4.11905 1.59449 4.17442 1.62376 4.21774 1.66708C4.26107 1.71041 4.29033 1.76577 4.30174 1.82597C4.31314 1.88617 4.30615 1.94841 4.28167 2.00457C4.09869 2.42467 4.00205 2.96275 4.00205 3.56011C4.00205 5.66211 5.71216 7.37222 7.81417 7.37222C8.41153 7.37222 8.9496 7.27559 9.3697 7.09261C9.42587 7.06813 9.4881 7.06113 9.5483 7.07254C9.6085 7.08394 9.66387 7.11321 9.70719 7.15653C9.75051 7.19985 9.77978 7.25522 9.79119 7.31542C9.80259 7.37562 9.7956 7.43786 9.77112 7.49402C9.0775 9.08768 7.47108 10.1169 5.67938 10.1169Z" fill="white"/>
</g>
<defs>
<clipPath id="clip0_201_11920">
<rect width="9.75902" height="9.75902" fill="white" transform="translate(0.647461 0.967773)"/>
</clipPath>
</defs>
</svg>
