<svg width="20" height="20" viewBox="0 0 10 11" fill="none" xmlns="http://www.w3.org/2000/svg">
<g clip-path="url(#clip0_201_13107)">
<path d="M5.03799 2.67325C4.92677 2.67325 4.82011 2.62907 4.74147 2.55043C4.66283 2.47179 4.61865 2.36513 4.61865 2.25392V1.33901C4.61865 1.2278 4.66283 1.12114 4.74147 1.0425C4.82011 0.963857 4.92677 0.919678 5.03799 0.919678C5.1492 0.919678 5.25586 0.963857 5.3345 1.0425C5.41314 1.12114 5.45732 1.2278 5.45732 1.33901V2.25392C5.45732 2.36513 5.41314 2.47179 5.3345 2.55043C5.25586 2.62907 5.1492 2.67325 5.03799 2.67325Z" fill="black"/>
<path d="M5.03799 9.68753C4.92677 9.68753 4.82011 9.64335 4.74147 9.56471C4.66283 9.48607 4.61865 9.37942 4.61865 9.2682V8.35329C4.61865 8.24208 4.66283 8.13542 4.74147 8.05678C4.82011 7.97814 4.92677 7.93396 5.03799 7.93396C5.1492 7.93396 5.25586 7.97814 5.3345 8.05678C5.41314 8.13542 5.45732 8.24208 5.45732 8.35329V9.2682C5.45732 9.37942 5.41314 9.48607 5.3345 9.56471C5.25586 9.64335 5.1492 9.68753 5.03799 9.68753Z" fill="black"/>
<path d="M7.19467 3.56654C7.11176 3.56653 7.0307 3.54194 6.96176 3.49587C6.89281 3.44981 6.83908 3.38434 6.80733 3.30774C6.77559 3.23114 6.76727 3.14684 6.78343 3.06552C6.79958 2.98419 6.83948 2.90947 6.89809 2.85082L7.54501 2.2039C7.62399 2.12697 7.73009 2.08424 7.84035 2.08497C7.9506 2.0857 8.05614 2.12982 8.1341 2.20778C8.21207 2.28574 8.25619 2.39128 8.25691 2.50153C8.25764 2.61179 8.21491 2.71789 8.13798 2.79688L7.49106 3.44379C7.45218 3.48276 7.40598 3.51367 7.35511 3.53473C7.30425 3.5558 7.24973 3.56661 7.19467 3.56654Z" fill="black"/>
<path d="M2.23471 8.52645C2.15177 8.52644 2.0707 8.50183 2.00174 8.45574C1.93279 8.40965 1.87905 8.34415 1.84732 8.26752C1.81559 8.19088 1.80731 8.10656 1.8235 8.02522C1.8397 7.94388 1.87966 7.86917 1.93832 7.81053L2.58524 7.16362C2.62398 7.12383 2.67024 7.09215 2.72134 7.07039C2.77243 7.04863 2.82734 7.03724 2.88287 7.03687C2.9384 7.03651 2.99345 7.04718 3.04482 7.06826C3.0962 7.08934 3.14287 7.12042 3.18214 7.15969C3.22141 7.19895 3.25249 7.24563 3.27357 7.297C3.29465 7.34838 3.30532 7.40343 3.30495 7.45896C3.30459 7.51449 3.29319 7.5694 3.27144 7.62049C3.24968 7.67158 3.21799 7.71784 3.17821 7.75659L2.53129 8.40351C2.49239 8.44253 2.44617 8.47347 2.39527 8.49457C2.34437 8.51567 2.28981 8.5265 2.23471 8.52645Z" fill="black"/>
<path d="M9.0027 5.72294H8.08779C7.97658 5.72294 7.86992 5.67876 7.79128 5.60012C7.71264 5.52148 7.66846 5.41482 7.66846 5.30361C7.66846 5.1924 7.71264 5.08574 7.79128 5.0071C7.86992 4.92846 7.97658 4.88428 8.08779 4.88428H9.0027C9.11391 4.88428 9.22057 4.92846 9.29921 5.0071C9.37785 5.08574 9.42203 5.1924 9.42203 5.30361C9.42203 5.41482 9.37785 5.52148 9.29921 5.60012C9.22057 5.67876 9.11391 5.72294 9.0027 5.72294Z" fill="black"/>
<path d="M1.98854 5.72294H1.07363C0.962416 5.72294 0.855757 5.67876 0.777117 5.60012C0.698476 5.52148 0.654297 5.41482 0.654297 5.30361C0.654297 5.1924 0.698476 5.08574 0.777117 5.0071C0.855757 4.92846 0.962416 4.88428 1.07363 4.88428H1.98854C2.09975 4.88428 2.20641 4.92846 2.28505 5.0071C2.36369 5.08574 2.40787 5.1924 2.40787 5.30361C2.40787 5.41482 2.36369 5.52148 2.28505 5.60012C2.20641 5.67876 2.09975 5.72294 1.98854 5.72294Z" fill="black"/>
<path d="M7.84174 8.52645C7.78664 8.52651 7.73207 8.51567 7.68118 8.49458C7.63028 8.47348 7.58405 8.44253 7.54515 8.40351L6.89824 7.75659C6.82131 7.67761 6.77858 7.5715 6.77931 7.46125C6.78003 7.35099 6.82415 7.24546 6.90212 7.1675C6.98008 7.08953 7.08561 7.04541 7.19587 7.04469C7.30612 7.04396 7.41223 7.08669 7.49121 7.16362L8.13813 7.81053C8.19679 7.86917 8.23675 7.94388 8.25294 8.02522C8.26914 8.10657 8.26085 8.19089 8.22913 8.26752C8.1974 8.34415 8.14366 8.40965 8.07471 8.45574C8.00575 8.50183 7.92468 8.52644 7.84174 8.52645Z" fill="black"/>
<path d="M2.88158 3.56654C2.82653 3.56665 2.77199 3.55586 2.72112 3.53479C2.67025 3.51372 2.62405 3.4828 2.58519 3.44379L1.93828 2.79688C1.86135 2.71789 1.81862 2.61179 1.81935 2.50153C1.82007 2.39128 1.86419 2.28574 1.94216 2.20778C2.02012 2.12982 2.12565 2.0857 2.23591 2.08497C2.34616 2.08424 2.45227 2.12697 2.53125 2.2039L3.17817 2.85082C3.23678 2.90947 3.27668 2.98419 3.29283 3.06552C3.30899 3.14684 3.30067 3.23114 3.26892 3.30774C3.23718 3.38434 3.18344 3.44981 3.1145 3.49587C3.04556 3.54194 2.9645 3.56653 2.88158 3.56654Z" fill="black"/>
<path d="M5.03793 7.24786C4.65341 7.24786 4.27752 7.13383 3.9578 6.9202C3.63808 6.70657 3.38889 6.40294 3.24174 6.04768C3.09459 5.69243 3.05609 5.30152 3.13111 4.92439C3.20612 4.54725 3.39129 4.20083 3.66319 3.92893C3.93509 3.65704 4.28151 3.47187 4.65864 3.39685C5.03577 3.32184 5.42668 3.36034 5.78194 3.50749C6.13719 3.65464 6.44083 3.90383 6.65446 4.22355C6.86809 4.54327 6.98211 4.91916 6.98211 5.30368C6.9815 5.81912 6.77648 6.31328 6.412 6.67775C6.04753 7.04223 5.55337 7.24725 5.03793 7.24786Z" fill="black"/>
</g>
<defs>
<clipPath id="clip0_201_13107">
<rect width="9.75902" height="9.75902" fill="white" transform="translate(0.158691 0.424316)"/>
</clipPath>
</defs>
</svg>
